<svg width="22" height="22" viewBox="0 0 22 22" fill="none" xmlns="http://www.w3.org/2000/svg">
<path d="M10.1751 1.20359C10.5723 0.624014 11.4277 0.624014 11.8249 1.20359L15.031 5.88175C15.1611 6.07148 15.3525 6.21059 15.5731 6.27562L21.0131 7.87923C21.687 8.07789 21.9514 8.89136 21.5229 9.44822L18.0645 13.9431C17.9242 14.1254 17.8511 14.3505 17.8574 14.5804L18.0133 20.2496C18.0326 20.952 17.3406 21.4547 16.6786 21.2193L11.335 19.3191C11.1183 19.2421 10.8817 19.2421 10.665 19.3191L5.32136 21.2193C4.65935 21.4547 3.96738 20.952 3.98669 20.2496L4.14262 14.5804C4.14894 14.3505 4.07581 14.1254 3.93555 13.9431L0.477101 9.44822C0.0486391 8.89136 0.312951 8.07789 0.9869 7.87923L6.42686 6.27562C6.64748 6.21059 6.83894 6.07148 6.96898 5.88175L10.1751 1.20359Z" fill="#FFEC1E"/>
</svg>
